<svg xmlns="http://www.w3.org/2000/svg" viewBox="0 0 512 503.6"><defs><style>.cls-1{fill:#99a0b2;}.cls-2{fill:#b0b8cc;}.cls-3{fill:#eff4fc;}.cls-4{fill:#d7deef;}.cls-5{fill:#d22194;}.cls-6{fill:#b71c81;}.cls-7{fill:#f0c087;}.cls-8{fill:#e9be9d;}</style></defs><title>can-1</title><g id="Слой_2" data-name="Слой 2"><g id="Capa_1" data-name="Capa 1"><path class="cls-1" d="M418.9,406.3a7.7,7.7,0,0,1-7.7-7.7V358.4a7.7,7.7,0,1,1,15.4,0v40.2A7.64,7.64,0,0,1,418.9,406.3Z"/><path class="cls-1" d="M93.1,406.3a7.7,7.7,0,0,1-7.7-7.7V358.4a7.7,7.7,0,1,1,15.4,0v40.2A7.64,7.64,0,0,1,93.1,406.3Z"/><path class="cls-2" d="M445.5,420.8H66.5a8.17,8.17,0,0,1-8.2-8.2v-4.5a8.17,8.17,0,0,1,8.2-8.2H445.6a8.17,8.17,0,0,1,8.2,8.2v4.5A8.26,8.26,0,0,1,445.5,420.8Z"/><path class="cls-3" d="M512,8.2v342a8.17,8.17,0,0,1-8.2,8.2H8.2A8.17,8.17,0,0,1,0,350.2V8.2A8.17,8.17,0,0,1,8.2,0H503.7A8.26,8.26,0,0,1,512,8.2Z"/><path class="cls-4" d="M358.4,358.5H146c-1.5-13.1-2.4-27.6-2.8-43.5-.1-4.5-.2-88.1-.2-137.6a41,41,0,0,1,41-41,41,41,0,0,1,40.9,40.9v65h76.8a63,63,0,0,1,33.2,10,41.65,41.65,0,0,1,19.2,32.5Z"/><path class="cls-4" d="M503.8,358.5H8.2A8.17,8.17,0,0,1,0,350.3V295.2H512v55.1A8.24,8.24,0,0,1,503.8,358.5Z"/><path class="cls-4" d="M512,64.1H0V8.2A8.17,8.17,0,0,1,8.2,0H503.7a8.17,8.17,0,0,1,8.2,8.2l.1,55.9Z"/><path class="cls-2" d="M512,43.3H0V8.2A8.17,8.17,0,0,1,8.2,0H503.7a8.17,8.17,0,0,1,8.2,8.2l.1,35.1Z"/><path class="cls-2" d="M512,316.5v33.7a8.17,8.17,0,0,1-8.2,8.2H8.2A8.17,8.17,0,0,1,0,350.2V316.5Z"/><path class="cls-1" d="M358.4,358.4h0l-212.4.1v-.1c-1.4-12.7-2.3-26.7-2.7-41.9H355.9Z"/><path class="cls-5" d="M397.2,29.3h-1.1a7.7,7.7,0,1,1,0-15.4h1.1a7.7,7.7,0,1,1,0,15.4Z"/><path class="cls-3" d="M427.6,29.3h-1.1a7.7,7.7,0,1,1,0-15.4h1.1a7.7,7.7,0,1,1,0,15.4Z"/><path class="cls-3" d="M458.1,29.3H457a7.7,7.7,0,1,1,0-15.4h1.1a7.7,7.7,0,1,1,0,15.4Z"/><path d="M267.2,344.9H242.5a7.7,7.7,0,0,1,0-15.4h24.7a7.7,7.7,0,1,1,0,15.4Z"/><path class="cls-5" d="M384.6,92.5v89.9a51.38,51.38,0,0,1-51.4,51.4H132.4a8.17,8.17,0,0,1-8.2-8.2V92.6a8.17,8.17,0,0,1,8.2-8.2h244A8,8,0,0,1,384.6,92.5Z"/><path class="cls-6" d="M224.9,177.3v56.5H143.1V177.4a40.9,40.9,0,1,1,81.8-.1Z"/><path class="cls-7" d="M343.9,376.9l-5.4-91.1a26,26,0,0,0-12-20.4,46.46,46.46,0,0,0-24.9-7.6H209.3V177.3a25.44,25.44,0,0,0-25.4-25.4h0a25.37,25.37,0,0,0-25.4,25.4c0,45.3.1,132.9.2,137.2,3,117.3,34.9,122,38.2,123.9a.77.77,0,0,0,.3.1v23H316.4V438.4l9.4-10.5A70.39,70.39,0,0,0,343.9,376.9Z"/><path class="cls-8" d="M316.5,461.6H197.2v-23a.77.77,0,0,1-.3-.1H316.4v23.1Z"/><path class="cls-1" d="M186,495.4V465.6a8.17,8.17,0,0,1,8.2-8.2H319.6a8.17,8.17,0,0,1,8.2,8.2v29.8a8.17,8.17,0,0,1-8.2,8.2H194.2A8.24,8.24,0,0,1,186,495.4Z"/><path class="cls-2" d="M373.2,178.9l16.6,39.7a5.08,5.08,0,0,0,8.3,1.6l23.1-23.1a5.08,5.08,0,0,0-1.6-8.3l-39.7-16.6A5.13,5.13,0,0,0,373.2,178.9Z"/><path class="cls-2" d="M459.4,139.4h-31a7.7,7.7,0,1,1,0-15.4h31a7.7,7.7,0,1,1,0,15.4Z"/><path class="cls-2" d="M459.4,159.1h-31a7.7,7.7,0,1,1,0-15.4h31a7.7,7.7,0,1,1,0,15.4Z"/><path class="cls-2" d="M83.7,139.4h-31a7.7,7.7,0,1,1,0-15.4h31a7.7,7.7,0,0,1,0,15.4Z"/><path class="cls-2" d="M83.7,159.1h-31a7.7,7.7,0,1,1,0-15.4h31a7.7,7.7,0,0,1,0,15.4Z"/><path class="cls-3" d="M296.5,119.8a6.3,6.3,0,1,0-12.6,0,5.83,5.83,0,0,0,.6,2.6,35.18,35.18,0,0,0-11.2,3.7,28.62,28.62,0,0,1,4.8,3.8,30.26,30.26,0,0,1,12-2.4,29.87,29.87,0,0,1,16,4.5l3.2-4.5a36.77,36.77,0,0,0-13.4-5A6.6,6.6,0,0,0,296.5,119.8Z"/><path class="cls-3" d="M266.6,155.7h-7.3a29.89,29.89,0,0,1,3-10.8,25.48,25.48,0,0,1-2.7-6.3,36.29,36.29,0,0,0-5.9,19.8,2.69,2.69,0,0,0,2.7,2.7h10.1a2.69,2.69,0,0,0,2.7-2.7A2.55,2.55,0,0,0,266.6,155.7Z"/><path class="cls-3" d="M319.9,137.5c-1.2,2.3-2.1,4.1-2.9,5.6a31.55,31.55,0,0,1,3.9,12.5h-7.3a2.7,2.7,0,1,0,0,5.4h10.1a2.69,2.69,0,0,0,2.7-2.7A34.3,34.3,0,0,0,319.9,137.5Z"/><path class="cls-3" d="M324.1,165.8a2.81,2.81,0,0,0-2.1-1H305.9a2.7,2.7,0,1,0,0,5.4h12.6a29.74,29.74,0,0,1-56.6,0h14a2.7,2.7,0,1,0,0-5.4H258.4a2.81,2.81,0,0,0-2.1,1,3.1,3.1,0,0,0-.6,2.3,36.82,36.82,0,0,0,6.3,14.1l-1.8,8.8a3.4,3.4,0,0,0,1.3,3.5,3.51,3.51,0,0,0,1.4.6,3.06,3.06,0,0,0,2.3-.3l6.8-3.5a34.8,34.8,0,0,0,18,5,35.33,35.33,0,0,0,17.9-4.9l6.7,3.5a3.12,3.12,0,0,0,2.3.3,3.51,3.51,0,0,0,1.4-.6,3.4,3.4,0,0,0,1.3-3.5l-1.7-8.5a33.23,33.23,0,0,0,6.5-14.4A2.23,2.23,0,0,0,324.1,165.8Z"/><path class="cls-3" d="M321.1,117.8a2.42,2.42,0,0,1,2,1.3c.5.8,1.1,2.6-.4,5.3-.9,1.8-2.9,5.6-5,9.7-3.6,7.1-6,11.9-6.5,12.7a3.48,3.48,0,0,1-3.1,1.3,9.52,9.52,0,0,1-1.8-.2l-.9-.1c-1.9,2.5-7.7,13.2-11.3,20.2a5.91,5.91,0,0,1-.5.8,6.79,6.79,0,0,1-1.2,1.2,3.55,3.55,0,0,1-.9.4h-.1c-.1,0-.1,0-.2.1a3.55,3.55,0,0,1-1,.2h0a3.61,3.61,0,0,1-2-.6,3.74,3.74,0,0,1-1.4-1.4c-.4-.5-.6-.9-.7-1-4.3-8.6-9.7-18.3-11.4-19.5a6.93,6.93,0,0,1-2,.3c-2.6,0-4.9-1.5-7-4.6-3.3-4.9-5.5-13.6-1.7-16.2a4.45,4.45,0,0,1,2.3-.7c3.9,0,9.3,4.3,12,8.4,3.5,5.2,1.8,8.5.3,10.2.3,1.7,5.6,8.5,11.4,14.8l29.7-42.1a3.36,3.36,0,0,1,1.4-.5"/></g></g></svg>