<svg xmlns="http://www.w3.org/2000/svg" viewBox="0 0 511.08 512"><defs><style>.cls-1{fill:#d22194;}.cls-2{fill:#eff2fa;}.cls-3{fill:#b0b8cc;}</style></defs><title>can-4</title><g id="Слой_2" data-name="Слой 2"><g id="Layer_1" data-name="Layer 1"><polygon class="cls-1" points="158.06 403.1 148.26 464.1 165.66 448.8 190.76 467.3 182.06 415 158.06 403.1"/><polygon class="cls-1" points="131.86 392.2 77.46 402 100.36 406.3 91.56 420.5 156.96 403.1 131.86 392.2"/><path class="cls-2" d="M391.16,282.1c-83.9,65.4-190.6,65.4-274.5,0V94.7h274.5Z"/><polygon class="cls-3" points="13.16 97 265.86 199.4 493.56 90.4 254.96 0 13.16 97"/><path class="cls-2" d="M495.76,192.8a4.73,4.73,0,0,1-4.4-4.4V94.8c0-6.5-7.6-7.6-8.7-8.7l-222.2,8.7h0a4.4,4.4,0,0,1,0-8.8l223.3-8.7h0c5.4,1.1,16.3,5.4,16.3,17.4v93.7A4.64,4.64,0,0,1,495.76,192.8Z"/><path class="cls-1" d="M511,260.4l-8.7-83.9q0-3.3-3.3-3.3h-5.4a3.51,3.51,0,0,0-3.3,3.3l-8.7,83.9c-1.1,12,5.4,21.8,15.3,21.8C505.56,282.1,512.06,272.3,511,260.4Z"/><circle class="cls-1" cx="495.76" cy="154.7" r="8.7"/><path class="cls-3" d="M413,473.9s-22.9,34.9-74.1,38.1c0,0-188.5-146-323.5-146,0,0,3.3-24,32.7-34.9L270.26,391Z"/><path class="cls-2" d="M430.36,448.8c-17.4,38.1-53.4,55.6-79.5,38.1-26.1-16.3-33.8-61-16.3-99.1s53.4-55.6,79.5-38.1C440.16,366,447.86,410.7,430.36,448.8Z"/><path class="cls-3" d="M379.16,392.2c21.8-2.2,29.4,37-2.2,51.2l-78.4-27.3S358.46,394.3,379.16,392.2Z"/><path class="cls-3" d="M394.46,488s-58.8,7.6-47.9-52.3c2.2-14.2,10.9-35.9,32.7-43.6l-94.8-16.3L315,461.9l35.9,25.1C349.76,486.9,369.36,502.2,394.46,488Z"/><path class="cls-2" d="M334.56,387.8c12-27.2,33.8-43.6,55.6-44.7-182-2.1-349.8-92.5-349.8-92.5s-27.2-6.5-37,32.7c-12,43.6,12,58.8,12,58.8,138.3,6.5,289.8,111.1,331.2,141.6C322.56,464.1,318.16,423.8,334.56,387.8Z"/><path class="cls-1" d="M233.26,322.5s-83.9,40.3-41.4,98l-46.8-21.8s-19.6-58.8,45.8-87.1Z"/></g></g></svg>