<svg xmlns="http://www.w3.org/2000/svg" viewBox="0 0 59 52.6"><defs><style>.cls-1{fill:#eff2fa;}.cls-2{fill:#b0b8cc;}.cls-3{fill:#d22194;}</style></defs><title>can-3</title><g id="Слой_2" data-name="Слой 2"><g id="Capa_1" data-name="Capa 1"><path class="cls-1" d="M54.5,41l-.9-.5.1,1a18.41,18.41,0,0,1,.3,3.3,106.73,106.73,0,0,1-49,0,18.41,18.41,0,0,1,.3-3.3l.1-1-.9.5C2.5,42.1,0,43.8,0,45.6c0,4.5,15.2,7,29.5,7S59,50.1,59,45.6C59,43.8,56.5,42.1,54.5,41Z"/><path class="cls-2" d="M29.5,19.6A25.54,25.54,0,0,0,4,45.1v.4l.4.1a106.37,106.37,0,0,0,25.1,3,106.37,106.37,0,0,0,25.1-3l.4-.1v-.4A25.54,25.54,0,0,0,29.5,19.6Z"/><path class="cls-3" d="M18.6,18.1a.91.91,0,0,1-.7-.3,4.59,4.59,0,0,1,0-6.5,2.5,2.5,0,0,0,.8-1.8,2.34,2.34,0,0,0-.8-1.8,1,1,0,1,1,1.4-1.4,4.59,4.59,0,0,1,0,6.6,2.66,2.66,0,0,0,0,3.7,1,1,0,0,1,0,1.4C19.1,18,18.8,18.1,18.6,18.1Z"/><path class="cls-3" d="M40.6,18.1a.91.91,0,0,1-.7-.3,4.59,4.59,0,0,1,0-6.5,2.5,2.5,0,0,0,.8-1.8,2.34,2.34,0,0,0-.8-1.8,1,1,0,1,1,1.4-1.4,4.45,4.45,0,0,1,1.3,3.3,4.87,4.87,0,0,1-1.3,3.3,2.66,2.66,0,0,0,0,3.7,1,1,0,0,1,0,1.4C41.1,18,40.8,18.1,40.6,18.1Z"/><path class="cls-3" d="M29.6,12.1a.91.91,0,0,1-.7-.3,4.59,4.59,0,0,1,0-6.5,2.5,2.5,0,0,0,.8-1.8,2.5,2.5,0,0,0-.8-1.8,1,1,0,0,1,0-1.4,1,1,0,0,1,1.4,0,4.53,4.53,0,0,1,1.4,3.3,4.53,4.53,0,0,1-1.4,3.3,2.66,2.66,0,0,0,0,3.7,1,1,0,0,1,0,1.4C30.1,12,29.8,12.1,29.6,12.1Z"/><path class="cls-1" d="M33.9,21.5l-.8-.1a21.75,21.75,0,0,0-7.2,0l-.8.1-.3-.7a5,5,0,1,1,9.4,0Zm-4.4-2.4c1,0,2,.1,3,.2v-.2a3,3,0,0,0-6,0v.2C27.5,19.2,28.5,19.1,29.5,19.1Z"/><path class="cls-1" d="M24.8,25.7a1,1,0,0,1-1-.8,1,1,0,0,1,.8-1.2,19.89,19.89,0,0,1,4.9-.5,1,1,0,0,1,0,2h0a21.18,21.18,0,0,0-4.4.5Z"/><path class="cls-1" d="M9.5,42.1H9.3a1,1,0,0,1-.8-1.2A21.78,21.78,0,0,1,18.6,26a1,1,0,0,1,1,1.8,20.37,20.37,0,0,0-9.2,13.6A.81.81,0,0,1,9.5,42.1Z"/><path class="cls-1" d="M30.2,32.3a.7.7,0,0,0-1.4,0,.37.37,0,0,0,.1.3,4.23,4.23,0,0,0-1.2.4,2.18,2.18,0,0,1,.5.4,3.08,3.08,0,0,1,1.3-.3,3.45,3.45,0,0,1,1.8.5l.4-.5a2.69,2.69,0,0,0-1.5-.5Z"/><path class="cls-1" d="M26.9,36.1h-.8a5.27,5.27,0,0,1,.3-1.2,4.88,4.88,0,0,1-.3-.7,3.77,3.77,0,0,0-.7,2.1.27.27,0,0,0,.3.3h1.1a.27.27,0,0,0,.3-.3C27.2,36.3,27,36.1,26.9,36.1Z"/><path class="cls-1" d="M32.8,34.2l-.3.6a3.26,3.26,0,0,1,.4,1.4h-.8a.3.3,0,0,0,0,.6h1.1a.27.27,0,0,0,.3-.3A3,3,0,0,0,32.8,34.2Z"/><path class="cls-1" d="M33.3,37.2c-.1-.1-.1-.1-.2-.1H31.3a.3.3,0,1,0,0,.6h1.4a3.28,3.28,0,0,1-6.2,0h1.6a.3.3,0,1,0,0-.6H26c-.1,0-.2,0-.2.1a.31.31,0,0,0-.1.2,3.48,3.48,0,0,0,.7,1.5l-.2.9a.6.6,0,0,0,.1.4.35.35,0,0,0,.2.1h.3l.8-.4a4.25,4.25,0,0,0,4,0l.7.4c.1,0,.2.1.3,0s.1,0,.2-.1.2-.2.1-.4l-.2-.9a3,3,0,0,0,.7-1.5A.35.35,0,0,1,33.3,37.2Z"/><path class="cls-1" d="M32.9,32.1a.35.35,0,0,1,.2.1q.15.15,0,.6a6.42,6.42,0,0,1-.6,1,15.55,15.55,0,0,0-.7,1.4c0,.1-.1.1-.3.1h-.3c-.2.3-.9,1.4-1.3,2.2l-.1.1-.1.1h-.2c-.1,0-.2,0-.2-.1s-.1-.1-.2-.1a.1.1,0,0,0-.1-.1,11.49,11.49,0,0,0-1.3-2.1h-.2c-.3,0-.5-.2-.8-.5-.4-.5-.6-1.5-.2-1.7.1,0,.2-.1.3-.1a2.22,2.22,0,0,1,1.3.9c.4.6.2.9,0,1.1a5.7,5.7,0,0,0,1.3,1.6l3.3-4.5h.2"/></g></g></svg>