<svg xmlns="http://www.w3.org/2000/svg" viewBox="0 0 12.14 21.44"><defs><style>.cls-1{fill:#d31e89;}</style></defs><title>Ресурс 1</title><g id="Слой_2" data-name="Слой 2"><g id="Слой_1-2" data-name="Слой 1"><path class="cls-1" d="M10.58,0h-9A1.56,1.56,0,0,0,0,1.56V19.88a1.56,1.56,0,0,0,1.56,1.56h9a1.56,1.56,0,0,0,1.56-1.56V1.56A1.56,1.56,0,0,0,10.58,0ZM3.84,1H8.3c.11,0,.2.17.2.38s-.09.38-.2.38H3.84c-.11,0-.2-.17-.2-.38S3.73,1,3.84,1ZM6.07,19.9a1,1,0,1,1,1-1,1,1,0,0,1-1,1ZM11,16.48H1.17V2.64H11Zm0,0"/></g></g></svg>